<svg width="20" height="16" viewBox="0 0 20 16" fill="none" xmlns="http://www.w3.org/2000/svg">
<path d="M4.5 0C5.16304 0 5.79893 0.263392 6.26777 0.732233C6.73661 1.20107 7 1.83696 7 2.5C7 3.16304 6.73661 3.79893 6.26777 4.26777C5.79893 4.73661 5.16304 5 4.5 5C3.83696 5 3.20107 4.73661 2.73223 4.26777C2.26339 3.79893 2 3.16304 2 2.5C2 1.83696 2.26339 1.20107 2.73223 0.732233C3.20107 0.263392 3.83696 0 4.5 0ZM16 0C16.663 0 17.2989 0.263392 17.7678 0.732233C18.2366 1.20107 18.5 1.83696 18.5 2.5C18.5 3.16304 18.2366 3.79893 17.7678 4.26777C17.2989 4.73661 16.663 5 16 5C15.337 5 14.7011 4.73661 14.2322 4.26777C13.7634 3.79893 13.5 3.16304 13.5 2.5C13.5 1.83696 13.7634 1.20107 14.2322 0.732233C14.7011 0.263392 15.337 0 16 0ZM0 9.33438C0 7.49375 1.49375 6 3.33437 6H4.66875C5.16562 6 5.6375 6.10938 6.0625 6.30312C6.02187 6.52812 6.00313 6.7625 6.00313 7C6.00313 8.19375 6.52812 9.26562 7.35625 10C7.35 10 7.34375 10 7.33437 10H0.665625C0.3 10 0 9.7 0 9.33438ZM12.6656 10C12.6594 10 12.6531 10 12.6438 10C13.475 9.26562 13.9969 8.19375 13.9969 7C13.9969 6.7625 13.975 6.53125 13.9375 6.30312C14.3625 6.10625 14.8344 6 15.3313 6H16.6656C18.5063 6 20 7.49375 20 9.33438C20 9.70312 19.7 10 19.3344 10H12.6656ZM7 7C7 6.20435 7.31607 5.44129 7.87868 4.87868C8.44129 4.31607 9.20435 4 10 4C10.7956 4 11.5587 4.31607 12.1213 4.87868C12.6839 5.44129 13 6.20435 13 7C13 7.79565 12.6839 8.55871 12.1213 9.12132C11.5587 9.68393 10.7956 10 10 10C9.20435 10 8.44129 9.68393 7.87868 9.12132C7.31607 8.55871 7 7.79565 7 7ZM4 15.1656C4 12.8656 5.86562 11 8.16562 11H11.8344C14.1344 11 16 12.8656 16 15.1656C16 15.625 15.6281 16 15.1656 16H4.83437C4.375 16 4 15.6281 4 15.1656Z" fill="white"/>
</svg>
