<svg width="20" height="20" viewBox="0 0 20 20" fill="none" xmlns="http://www.w3.org/2000/svg">
<path d="M2.25391 7.53906L2.62109 8.17969C2.94531 8.74609 3.47656 9.16406 4.10547 9.34375L6.36719 9.98828C7.03906 10.1797 7.5 10.793 7.5 11.4922V13.0508C7.5 13.4805 7.74219 13.8711 8.125 14.0625C8.50781 14.2539 8.75 14.6445 8.75 15.0742V16.5977C8.75 17.207 9.33203 17.6484 9.91797 17.4805C10.5469 17.3008 11.0352 16.7969 11.1953 16.1602L11.3047 15.7227C11.4688 15.0625 11.8984 14.4961 12.4883 14.1602L12.8047 13.9805C13.3906 13.6484 13.75 13.0234 13.75 12.3516V12.0273C13.75 11.5312 13.5508 11.0547 13.1992 10.7031L13.0469 10.5508C12.6953 10.1992 12.2188 10 11.7227 10H10.0391C9.60547 10 9.17578 9.88672 8.79688 9.67188L7.44922 8.90234C7.28125 8.80469 7.15234 8.64844 7.08984 8.46484C6.96484 8.08984 7.13281 7.68359 7.48828 7.50781L7.71875 7.39062C7.97656 7.26172 8.27734 7.23828 8.55078 7.33203L9.45703 7.63281C9.77734 7.73828 10.1289 7.61719 10.3125 7.33984C10.4961 7.06641 10.4766 6.70312 10.2656 6.44922L9.73438 5.8125C9.34375 5.34375 9.34766 4.66016 9.74609 4.19922L10.3594 3.48438C10.7031 3.08203 10.7578 2.50781 10.4961 2.05078L10.4023 1.88672C10.2656 1.87891 10.1328 1.875 9.99609 1.875C6.37109 1.875 3.29688 4.25391 2.25391 7.53906ZM18.125 10C18.125 8.5625 17.75 7.21094 17.0938 6.03516L16.0938 6.4375C15.4805 6.68359 15.1641 7.36719 15.3711 7.99219L16.0312 9.97266C16.168 10.3789 16.5 10.6875 16.9141 10.7891L18.0508 11.0742C18.0977 10.7227 18.1211 10.3633 18.1211 10H18.125ZM0 10C0 7.34784 1.05357 4.8043 2.92893 2.92893C4.8043 1.05357 7.34784 0 10 0C12.6522 0 15.1957 1.05357 17.0711 2.92893C18.9464 4.8043 20 7.34784 20 10C20 12.6522 18.9464 15.1957 17.0711 17.0711C15.1957 18.9464 12.6522 20 10 20C7.34784 20 4.8043 18.9464 2.92893 17.0711C1.05357 15.1957 0 12.6522 0 10Z" fill="#171717"/>
</svg>
