<svg width="25" height="20" viewBox="0 0 25 20" fill="none" xmlns="http://www.w3.org/2000/svg">
<path d="M6.07668 0.675738C6.36574 0.117144 7.0259 -0.140668 7.61574 0.0741757L12.4986 1.85543L17.3814 0.0741757C17.9712 -0.140668 18.6314 0.117144 18.9204 0.675738L21.9986 6.64839C23.1236 8.82808 22.4009 11.4257 20.4946 12.7656L21.7212 16.1328L23.3228 15.5468C23.9712 15.3125 24.69 15.6445 24.9243 16.2929C25.1587 16.9414 24.8267 17.6601 24.1782 17.8945L21.4009 18.9062L18.6236 19.9218C17.9751 20.1601 17.2564 19.8242 17.022 19.1757C16.7876 18.5273 17.1196 17.8085 17.7681 17.5742L19.3696 16.9882L18.147 13.6211C15.8267 13.8242 13.6079 12.2929 13.0689 9.9023L12.4986 7.37496L11.9282 9.9023C11.3892 12.2968 9.17043 13.8242 6.85012 13.6211L5.62746 16.9882L7.22902 17.5742C7.87746 17.8085 8.2134 18.5273 7.97512 19.1757C7.73684 19.8242 7.02199 20.1601 6.37356 19.9218L3.60012 18.9101L0.822774 17.8984C0.174336 17.6601 -0.161601 16.9453 0.0766801 16.2968C0.314961 15.6484 1.02981 15.3125 1.67824 15.5507L3.27981 16.1367L4.50246 12.7695C2.59621 11.4257 1.87746 8.82808 3.00246 6.64839L6.07668 0.675738ZM7.79543 2.80074L6.73293 4.86324L10.2173 6.13277L10.729 3.87105L7.79543 2.80074ZM17.2056 2.80074L14.272 3.87105L14.7837 6.13277L18.2681 4.86324L17.2056 2.80074Z" fill="#171717"/>
</svg>
