<svg width="20" height="20" viewBox="0 0 20 20" fill="none" xmlns="http://www.w3.org/2000/svg">
<path d="M3.38281 2.5L6.71094 5.82812C7.59766 4.75391 8.125 3.375 8.125 1.875C8.125 1.30078 8.04688 0.746094 7.90234 0.21875C6.19531 0.585938 4.64844 1.38672 3.38281 2.5ZM2.5 3.38281C1.38672 4.64844 0.585938 6.19531 0.21875 7.90234C0.746094 8.04688 1.30078 8.125 1.875 8.125C3.375 8.125 4.75391 7.59766 5.83203 6.71484L2.5 3.38281ZM10 0C9.71484 0 9.42969 0.0117187 9.14844 0.0351562C9.29688 0.625 9.375 1.24219 9.375 1.875C9.375 3.72266 8.70703 5.41016 7.60156 6.71875L10 9.11719L16.6172 2.5C14.8516 0.945312 12.5352 0 10 0ZM1.875 9.375C1.24219 9.375 0.625 9.29688 0.0351562 9.14844C0.0117187 9.42969 0 9.71484 0 10C0 12.5352 0.945312 14.8516 2.5 16.6172L9.11719 10L6.71875 7.60156C5.41016 8.70703 3.72266 9.375 1.875 9.375ZM19.9648 10.8516C19.9883 10.5703 20 10.2852 20 10C20 7.46484 19.0547 5.14844 17.5 3.38281L10.8828 10L13.2812 12.3984C14.5859 11.293 16.2773 10.625 18.125 10.625C18.7578 10.625 19.375 10.7031 19.9648 10.8516ZM19.7812 12.0977C19.2539 11.9531 18.6992 11.875 18.125 11.875C16.625 11.875 15.2461 12.4023 14.168 13.2852L17.5 16.6172C18.6133 15.3555 19.418 13.8086 19.7812 12.0977ZM13.2852 14.168C12.4023 15.2461 11.875 16.625 11.875 18.125C11.875 18.6992 11.9531 19.2539 12.0977 19.7812C13.8047 19.4141 15.3516 18.6133 16.6172 17.5L13.2891 14.1719L13.2852 14.168ZM12.3984 13.2812L10 10.8828L3.38281 17.5C5.14453 19.0547 7.46094 20 10 20C10.2852 20 10.5703 19.9883 10.8516 19.9648C10.7031 19.375 10.625 18.7578 10.625 18.125C10.625 16.2773 11.293 14.5898 12.3984 13.2812Z" fill="#171717"/>
</svg>
