<svg width="13" height="14" viewBox="0 0 13 14" fill="none" xmlns="http://www.w3.org/2000/svg">
<path d="M3.5 0C3.98398 0 4.375 0.391016 4.375 0.875V1.75H7.875V0.875C7.875 0.391016 8.26602 0 8.75 0C9.23398 0 9.625 0.391016 9.625 0.875V1.75H10.9375C11.6621 1.75 12.25 2.33789 12.25 3.0625V4.375H0V3.0625C0 2.33789 0.587891 1.75 1.3125 1.75H2.625V0.875C2.625 0.391016 3.01602 0 3.5 0ZM0 5.25H12.25V12.6875C12.25 13.4121 11.6621 14 10.9375 14H1.3125C0.587891 14 0 13.4121 0 12.6875V5.25ZM1.75 7.4375V8.3125C1.75 8.55313 1.94687 8.75 2.1875 8.75H3.0625C3.30312 8.75 3.5 8.55313 3.5 8.3125V7.4375C3.5 7.19688 3.30312 7 3.0625 7H2.1875C1.94687 7 1.75 7.19688 1.75 7.4375ZM5.25 7.4375V8.3125C5.25 8.55313 5.44688 8.75 5.6875 8.75H6.5625C6.80312 8.75 7 8.55313 7 8.3125V7.4375C7 7.19688 6.80312 7 6.5625 7H5.6875C5.44688 7 5.25 7.19688 5.25 7.4375ZM9.1875 7C8.94687 7 8.75 7.19688 8.75 7.4375V8.3125C8.75 8.55313 8.94687 8.75 9.1875 8.75H10.0625C10.3031 8.75 10.5 8.55313 10.5 8.3125V7.4375C10.5 7.19688 10.3031 7 10.0625 7H9.1875ZM1.75 10.9375V11.8125C1.75 12.0531 1.94687 12.25 2.1875 12.25H3.0625C3.30312 12.25 3.5 12.0531 3.5 11.8125V10.9375C3.5 10.6969 3.30312 10.5 3.0625 10.5H2.1875C1.94687 10.5 1.75 10.6969 1.75 10.9375ZM5.6875 10.5C5.44688 10.5 5.25 10.6969 5.25 10.9375V11.8125C5.25 12.0531 5.44688 12.25 5.6875 12.25H6.5625C6.80312 12.25 7 12.0531 7 11.8125V10.9375C7 10.6969 6.80312 10.5 6.5625 10.5H5.6875ZM8.75 10.9375V11.8125C8.75 12.0531 8.94687 12.25 9.1875 12.25H10.0625C10.3031 12.25 10.5 12.0531 10.5 11.8125V10.9375C10.5 10.6969 10.3031 10.5 10.0625 10.5H9.1875C8.94687 10.5 8.75 10.6969 8.75 10.9375Z" fill="white"/>
</svg>
