<svg width="16" height="18" viewBox="0 0 16 18" fill="none" xmlns="http://www.w3.org/2000/svg">
<path d="M7.87421 0C7.25195 0 6.74921 0.502734 6.74921 1.125V1.7543C4.20039 2.15859 2.24921 4.36641 2.24921 7.03125V8.20547C2.24921 9.80156 1.70429 11.352 0.70937 12.5965L0.185542 13.2539C-0.0183643 13.507 -0.0570361 13.8551 0.0835889 14.1469C0.224214 14.4387 0.519526 14.625 0.842964 14.625H14.9055C15.2289 14.625 15.5242 14.4387 15.6648 14.1469C15.8055 13.8551 15.7668 13.507 15.5629 13.2539L15.0391 12.6C14.0441 11.352 13.4992 9.80156 13.4992 8.20547V7.03125C13.4992 4.36641 11.548 2.15859 8.99921 1.7543V1.125C8.99921 0.502734 8.49648 0 7.87421 0ZM7.87421 3.375H8.15546C10.1734 3.375 11.8117 5.01328 11.8117 7.03125V8.20547C11.8117 9.88945 12.3004 11.5312 13.2074 12.9375H2.54101C3.44804 11.5312 3.93671 9.88945 3.93671 8.20547V7.03125C3.93671 5.01328 5.575 3.375 7.59296 3.375H7.87421ZM10.1242 15.75H7.87421H5.62421C5.62421 16.3477 5.85976 16.9207 6.28164 17.3426C6.70351 17.7645 7.27656 18 7.87421 18C8.47187 18 9.04492 17.7645 9.46679 17.3426C9.88867 16.9207 10.1242 16.3477 10.1242 15.75Z" fill="#525252"/>
</svg>
