<svg width="12" height="12" viewBox="0 0 12 12" fill="none" xmlns="http://www.w3.org/2000/svg">
<path d="M0 1.30978V5.39767C0 5.86251 0.183203 6.30821 0.511328 6.63634L5.32383 11.4488C6.00742 12.1324 7.11484 12.1324 7.79844 11.4488L11.4488 7.79845C12.1324 7.11485 12.1324 6.00743 11.4488 5.32384L6.63633 0.511338C6.3082 0.183213 5.8625 9.49999e-06 5.39766 9.49999e-06H1.3125C0.587891 -0.00272487 0 0.585166 0 1.30978ZM3.0625 2.18478C3.29456 2.18478 3.51712 2.27696 3.68122 2.44106C3.84531 2.60515 3.9375 2.82771 3.9375 3.05978C3.9375 3.29184 3.84531 3.5144 3.68122 3.67849C3.51712 3.84259 3.29456 3.93478 3.0625 3.93478C2.83044 3.93478 2.60788 3.84259 2.44378 3.67849C2.27969 3.5144 2.1875 3.29184 2.1875 3.05978C2.1875 2.82771 2.27969 2.60515 2.44378 2.44106C2.60788 2.27696 2.83044 2.18478 3.0625 2.18478Z" fill="#525252"/>
</svg>
